<?xml version="1.0" encoding="utf-8"?>
<!-- Generator: Adobe Illustrator 16.0.0, SVG Export Plug-In . SVG Version: 6.00 Build 0)  -->
<!DOCTYPE svg PUBLIC "-//W3C//DTD SVG 1.1//EN" "http://www.w3.org/Graphics/SVG/1.1/DTD/svg11.dtd">
<svg version="1.1" id="Layer_1" xmlns="http://www.w3.org/2000/svg" xmlns:xlink="http://www.w3.org/1999/xlink" x="0px" y="0px"
	 width="127px" height="62px" viewBox="0 0 127 62" enable-background="new 0 0 127 62" xml:space="preserve">
<path fill="#7ABD43" d="M123.977,2.868v43.781h-11.591v9.664l-13.545-9.664v0.001H3.023V2.868H123.977z M126.977-0.132h-3H3.023h-3
	v3v43.782v3h3h94.858l12.763,9.105l4.742,3.383v-5.825v-6.664h8.591h3v-3V2.868V-0.132z"/>
<path fill="#6FA943" d="M8.111,19.294V18.66c0-6.497,2.403-9.059,5.415-9.059c0.897,0,1.426,0.105,2.112,0.422v3.329
	c-0.66-0.397-1.188-0.608-1.796-0.608c-1.426,0-2.456,1.268-2.456,5.89v0.686c0,4.887,1.03,5.891,2.509,5.891
	c0.502,0,1.136-0.186,1.797-0.581v3.169c-0.74,0.423-1.453,0.555-2.378,0.555C10.356,28.354,8.111,25.739,8.111,19.294"/>
<polygon fill="#6FA943" points="17.165,9.732 20.386,9.732 20.386,17.393 23.185,17.393 23.185,9.732 26.409,9.732 26.409,28.222 
	23.185,28.222 23.185,20.457 20.386,20.457 20.386,28.222 17.165,28.222 "/>
<path fill="#6FA943" d="M31.084,9.68h3.434l3.514,18.542h-3.223l-0.607-3.672H31.27l-0.581,3.672h-3.117L31.084,9.68z
	 M33.726,21.645l-0.979-6.101l-1.003,6.101H33.726z"/>
<polygon fill="#6FA943" points="40.033,12.797 37.761,12.797 37.761,9.733 45.526,9.733 45.526,12.797 43.254,12.797 43.254,28.222 
	40.033,28.222 "/>
<polygon fill="#6FA943" points="51.339,9.732 58.417,9.732 58.417,12.796 54.561,12.796 54.561,17.393 57.968,17.393 57.968,20.457 
	54.561,20.457 54.561,25.158 58.497,25.158 58.497,28.222 51.339,28.222 "/>
<polygon fill="#6FA943" points="60.117,9.732 63.127,9.732 66.376,19.083 66.376,9.732 69.519,9.732 69.519,28.222 66.667,28.222 
	63.259,18.422 63.259,28.222 60.117,28.222 "/>
<polygon fill="#6FA943" points="75.887,9.732 79.109,9.732 79.109,25.158 82.516,25.158 82.516,28.222 75.887,28.222 "/>
<path fill="#6FA943" d="M83.86,9.732h3.223v18.489H83.86V9.732z M86.395,5.454l2.668,1.32l-2.615,2.034h-2.324L86.395,5.454z"/>
<polygon fill="#6FA943" points="89.169,9.732 92.18,9.732 95.429,19.083 95.429,9.732 98.572,9.732 98.572,28.222 95.719,28.222 
	92.312,18.422 92.312,28.222 89.169,28.222 "/>
<polygon fill="#6FA943" points="100.624,9.732 107.702,9.732 107.702,12.796 103.845,12.796 103.845,17.393 107.252,17.393 
	107.252,20.457 103.845,20.457 103.845,25.158 107.781,25.158 107.781,28.222 100.624,28.222 "/>
<path fill="#6FA943" d="M112.288,9.68h3.434l3.514,18.542h-3.223l-0.607-3.672h-2.932l-0.581,3.672h-3.117L112.288,9.68z
	 M114.929,21.645l-0.979-6.101l-1.003,6.101H114.929z"/>
<path fill="#3D3D3C" d="M9.325,36.093v-0.337c0-3.45,1.275-4.809,2.874-4.809c0.478,0,0.758,0.055,1.122,0.223v1.768
	c-0.351-0.211-0.631-0.323-0.953-0.323c-0.758,0-1.305,0.674-1.305,3.127v0.365c0,2.594,0.547,3.127,1.332,3.127
	c0.267,0,0.604-0.098,0.954-0.309v1.684c-0.393,0.223-0.771,0.295-1.263,0.295C10.516,40.903,9.325,39.514,9.325,36.093"/>
<path fill="#3D3D3C" d="M13.917,36.177v-0.505c0-3.239,1.053-4.796,2.608-4.796c1.557,0,2.608,1.557,2.608,4.796v0.505
	c0,3.238-1.052,4.796-2.608,4.796C14.97,40.973,13.917,39.415,13.917,36.177 M17.396,36.177v-0.505c0-2.524-0.351-3.226-0.87-3.226
	c-0.519,0-0.869,0.701-0.869,3.226v0.505c0,2.523,0.351,3.225,0.869,3.225C17.045,39.401,17.396,38.7,17.396,36.177"/>
<polygon fill="#3D3D3C" points="20.054,31.016 21.653,31.016 23.377,35.98 23.377,31.016 25.046,31.016 25.046,40.831 
	23.532,40.831 21.723,35.63 21.723,40.831 20.054,40.831 "/>
<polygon fill="#3D3D3C" points="26.983,32.643 25.777,32.643 25.777,31.016 29.9,31.016 29.9,32.643 28.694,32.643 28.694,40.831 
	26.983,40.831 "/>
<path fill="#3D3D3C" d="M31.637,30.988h1.823l1.865,9.844h-1.711l-0.322-1.949h-1.557l-0.309,1.949h-1.655L31.637,30.988z
	 M33.04,37.341l-0.519-3.24l-0.533,3.24H33.04z"/>
<path fill="#3D3D3C" d="M35.557,36.093v-0.337c0-3.45,1.274-4.809,2.874-4.809c0.478,0,0.758,0.055,1.122,0.223v1.768
	c-0.351-0.211-0.631-0.323-0.953-0.323c-0.758,0-1.305,0.674-1.305,3.127v0.365c0,2.594,0.547,3.127,1.332,3.127
	c0.267,0,0.604-0.098,0.954-0.309v1.684c-0.393,0.223-0.771,0.295-1.263,0.295C36.748,40.903,35.557,39.514,35.557,36.093"/>
<polygon fill="#3D3D3C" points="41.426,32.643 40.22,32.643 40.22,31.016 44.343,31.016 44.343,32.643 43.137,32.643 43.137,40.831 
	41.426,40.831 "/>
<polygon fill="#3D3D3C" points="45.073,31.016 48.831,31.016 48.831,32.643 46.784,32.643 46.784,35.083 48.592,35.083 
	48.592,36.708 46.784,36.708 46.784,39.204 48.873,39.204 48.873,40.831 45.073,40.831 "/>
<path fill="#3D3D3C" d="M53.391,30.988h1.823l1.865,9.844h-1.711l-0.322-1.949H53.49l-0.309,1.949h-1.655L53.391,30.988z
	 M54.793,37.341l-0.519-3.24l-0.533,3.24H54.793z"/>
<path fill="#3D3D3C" d="M59.888,37.972v-6.956h1.697v7.124c0,0.885,0.309,1.234,0.742,1.234c0.436,0,0.744-0.35,0.744-1.234v-7.124
	h1.696v6.956c0,2.062-1.037,2.986-2.44,2.986C60.926,40.958,59.888,40.034,59.888,37.972"/>
<polygon fill="#3D3D3C" points="65.848,31.016 67.447,31.016 69.171,35.98 69.171,31.016 70.84,31.016 70.84,40.831 69.326,40.831 
	67.517,35.63 67.517,40.831 65.848,40.831 "/>
<path fill="#3D3D3C" d="M74,36.177v-0.505c0-3.239,1.052-4.796,2.607-4.796c1.557,0,2.608,1.557,2.608,4.796v0.505
	c0,3.238-1.052,4.796-2.608,4.796C75.051,40.973,74,39.415,74,36.177 M77.477,36.177v-0.505c0-2.524-0.351-3.226-0.87-3.226
	c-0.519,0-0.869,0.701-0.869,3.226v0.505c0,2.523,0.351,3.225,0.869,3.225C77.126,39.401,77.477,38.7,77.477,36.177"/>
<path fill="#3D3D3C" d="M80.135,31.016h1.528c1.865,0,3.169,1.008,3.169,3.309v0.027c0,2.217-1.233,3.269-2.973,3.395h-0.014v3.085
	h-1.711V31.016z M81.86,36.162c0.715-0.042,1.262-0.562,1.262-1.753v-0.027c0-1.248-0.477-1.781-1.22-1.781h-0.056v3.562H81.86z"/>
<polygon fill="#3D3D3C" points="85.556,31.016 89.314,31.016 89.314,32.643 87.267,32.643 87.267,35.083 89.076,35.083 
	89.076,36.708 87.267,36.708 87.267,39.204 89.356,39.204 89.356,40.831 85.556,40.831 "/>
<path fill="#3D3D3C" d="M90.228,31.015h1.767c1.753,0,3.029,0.925,3.029,3.128v0.125c0,1.277-0.505,2.09-1.15,2.58l1.318,3.983
	h-1.823l-1.107-3.422h-0.322v3.422h-1.711V31.015z M92.023,35.868c0.743,0,1.29-0.436,1.29-1.585v-0.112
	c0-1.234-0.589-1.557-1.332-1.557h-0.042v3.254H92.023z"/>
<path fill="#3D3D3C" d="M97.494,30.988h1.823l1.865,9.844h-1.711l-0.322-1.949h-1.557l-0.309,1.949h-1.655L97.494,30.988z
	 M98.896,37.341l-0.52-3.24l-0.532,3.24H98.896z"/>
<path fill="#3D3D3C" d="M101.814,31.016h1.598c2.188,0,3.437,1.585,3.437,4.74v0.337c0,3.154-1.248,4.738-3.437,4.738h-1.598V31.016
	z M103.595,39.262c0.812,0,1.514-0.716,1.514-3.169v-0.337c0-2.454-0.702-3.169-1.514-3.169h-0.07v6.675H103.595z"/>
<path fill="#3D3D3C" d="M107.558,36.177v-0.505c0-3.239,1.052-4.796,2.607-4.796c1.557,0,2.608,1.557,2.608,4.796v0.505
	c0,3.238-1.052,4.796-2.608,4.796C108.61,40.973,107.558,39.415,107.558,36.177 M111.036,36.177v-0.505
	c0-2.524-0.351-3.226-0.87-3.226c-0.519,0-0.869,0.701-0.869,3.226v0.505c0,2.523,0.351,3.225,0.869,3.225
	C110.685,39.401,111.036,38.7,111.036,36.177"/>
<path fill="#3D3D3C" d="M113.694,31.015h1.767c1.753,0,3.029,0.925,3.029,3.128v0.125c0,1.277-0.505,2.09-1.15,2.58l1.318,3.983
	h-1.823l-1.107-3.422h-0.322v3.422h-1.711V31.015z M115.489,35.868c0.743,0,1.29-0.436,1.29-1.585v-0.112
	c0-1.234-0.589-1.557-1.332-1.557h-0.042v3.254H115.489z"/>
<g>
</g>
<g>
</g>
<g>
</g>
<g>
</g>
<g>
</g>
<g>
</g>
</svg>
