<?xml version="1.0" encoding="utf-8"?>
<!-- Generator: Adobe Illustrator 16.0.0, SVG Export Plug-In . SVG Version: 6.00 Build 0)  -->
<!DOCTYPE svg PUBLIC "-//W3C//DTD SVG 1.1//EN" "http://www.w3.org/Graphics/SVG/1.1/DTD/svg11.dtd">
<svg version="1.1" id="Layer_1" xmlns="http://www.w3.org/2000/svg" xmlns:xlink="http://www.w3.org/1999/xlink" x="0px" y="0px"
	 width="250px" height="41.54px" viewBox="0 0 250 41.54" enable-background="new 0 0 250 41.54" xml:space="preserve">
<g id="XMLID_1026_">
	<g id="XMLID_2857_">
		<g>
			<path id="XMLID_695_" fill="#3C3C3B" d="M51.528,38.535l0.54-0.638c0.803,0.726,1.573,1.089,2.641,1.089
				c1.035,0,1.716-0.551,1.716-1.31v-0.023c0-0.715-0.385-1.121-2.002-1.463c-1.772-0.384-2.587-0.956-2.587-2.222v-0.023
				c0-1.21,1.068-2.102,2.532-2.102c1.123,0,1.925,0.32,2.707,0.947l-0.506,0.671c-0.716-0.582-1.431-0.838-2.223-0.838
				c-1.001,0-1.64,0.552-1.64,1.245v0.022c0,0.727,0.397,1.133,2.091,1.495c1.717,0.376,2.509,1.003,2.509,2.179v0.023
				c0,1.32-1.101,2.18-2.63,2.18C53.454,39.768,52.452,39.36,51.528,38.535z"/>
			<path id="XMLID_692_" fill="#3C3C3B" d="M58.604,36.841v-0.023c0-1.607,1.254-2.972,2.972-2.972c1.705,0,2.959,1.344,2.959,2.949
				v0.022c0,1.606-1.265,2.971-2.981,2.971C59.847,39.789,58.604,38.447,58.604,36.841z M63.666,36.841v-0.023
				c0-1.221-0.914-2.224-2.113-2.224c-1.232,0-2.08,1.003-2.08,2.201v0.022c0,1.221,0.902,2.212,2.102,2.212
				C62.808,39.03,63.666,38.039,63.666,36.841z"/>
			<path id="XMLID_690_" fill="#3C3C3B" d="M66.164,31.624h0.848v8.033h-0.848V31.624z"/>
			<path id="XMLID_688_" fill="#3C3C3B" d="M114.737,31.624h0.848v8.033h-0.848V31.624z"/>
			<path id="XMLID_686_" fill="#3C3C3B" d="M68.915,37.5v-3.532h0.847v3.321c0,1.058,0.572,1.719,1.574,1.719
				c0.968,0,1.705-0.716,1.705-1.783v-3.257h0.836v5.688h-0.836v-0.99c-0.385,0.617-0.968,1.113-1.948,1.113
				C69.718,39.78,68.915,38.854,68.915,37.5z"/>
			<path id="XMLID_684_" fill="#3C3C3B" d="M75.451,36.841v-0.023c0-1.607,1.254-2.972,2.917-2.972c1.078,0,1.749,0.452,2.278,1.013
				l-0.562,0.595c-0.451-0.474-0.958-0.859-1.728-0.859c-1.155,0-2.036,0.979-2.036,2.201v0.022c0,1.232,0.903,2.212,2.091,2.212
				c0.726,0,1.287-0.363,1.738-0.848l0.54,0.507c-0.573,0.639-1.254,1.1-2.322,1.1C76.706,39.789,75.451,38.435,75.451,36.841z"/>
			<path id="XMLID_681_" fill="#3C3C3B" d="M82.131,31.788H83.1v0.936h-0.969V31.788z M82.186,33.968h0.847v5.688h-0.847V33.968z"/>
			<path id="XMLID_678_" fill="#3C3C3B" d="M84.673,36.841v-0.023c0-1.607,1.254-2.972,2.971-2.972c1.706,0,2.96,1.344,2.96,2.949
				v0.022c0,1.606-1.265,2.971-2.982,2.971C85.916,39.789,84.673,38.447,84.673,36.841z M89.735,36.841v-0.023
				c0-1.221-0.914-2.224-2.113-2.224c-1.232,0-2.08,1.003-2.08,2.201v0.022c0,1.221,0.902,2.212,2.102,2.212
				C88.877,39.03,89.735,38.039,89.735,36.841z"/>
			<path id="XMLID_676_" fill="#3C3C3B" d="M92.156,33.968h0.847v0.99c0.375-0.616,0.969-1.112,1.948-1.112
				c1.375,0,2.179,0.924,2.179,2.279v3.531h-0.847v-3.323c0-1.056-0.572-1.716-1.574-1.716c-0.979,0-1.706,0.716-1.706,1.782v3.257
				h-0.847V33.968z"/>
			<path id="XMLID_673_" fill="#3C3C3B" d="M98.604,36.83v-0.023c0-1.64,1.155-2.96,2.73-2.96c1.684,0,2.651,1.344,2.651,3.004
				c0,0.111,0,0.176-0.012,0.275h-4.51c0.12,1.233,0.99,1.927,2.003,1.927c0.78,0,1.332-0.319,1.792-0.804l0.53,0.474
				c-0.574,0.638-1.266,1.066-2.345,1.066C99.88,39.789,98.604,38.59,98.604,36.83z M103.126,36.498
				c-0.088-1.032-0.68-1.936-1.815-1.936c-0.99,0-1.739,0.824-1.847,1.936H103.126z"/>
			<path id="XMLID_671_" fill="#3C3C3B" d="M105.021,38.93l0.428-0.605c0.616,0.464,1.299,0.728,1.971,0.728
				c0.682,0,1.176-0.352,1.176-0.903v-0.022c0-0.571-0.672-0.793-1.419-1.001c-0.892-0.252-1.881-0.561-1.881-1.607v-0.021
				c0-0.979,0.813-1.629,1.937-1.629c0.692,0,1.463,0.242,2.047,0.628l-0.386,0.638c-0.528-0.341-1.134-0.55-1.684-0.55
				c-0.672,0-1.102,0.352-1.102,0.825v0.021c0,0.54,0.704,0.749,1.464,0.979c0.881,0.264,1.827,0.607,1.827,1.629v0.022
				c0,1.079-0.892,1.707-2.024,1.707C106.561,39.768,105.658,39.448,105.021,38.93z"/>
			<path id="XMLID_668_" fill="#3C3C3B" d="M117.13,36.841v-0.023c0-1.607,1.255-2.972,2.972-2.972c1.706,0,2.961,1.344,2.961,2.949
				v0.022c0,1.606-1.267,2.971-2.982,2.971C118.374,39.789,117.13,38.447,117.13,36.841z M122.192,36.841v-0.023
				c0-1.221-0.912-2.224-2.111-2.224c-1.233,0-2.079,1.003-2.079,2.201v0.022c0,1.221,0.9,2.212,2.101,2.212
				C121.335,39.03,122.192,38.039,122.192,36.841z"/>
			<path id="XMLID_665_" fill="#3C3C3B" d="M124.546,40.648l0.388-0.66c0.647,0.472,1.375,0.726,2.188,0.726
				c1.255,0,2.07-0.693,2.07-2.024v-0.672c-0.495,0.661-1.19,1.199-2.234,1.199c-1.364,0-2.675-1.023-2.675-2.663v-0.021
				c0-1.661,1.32-2.686,2.675-2.686c1.067,0,1.76,0.528,2.223,1.145v-1.022h0.848v4.698c0,0.881-0.264,1.553-0.728,2.014
				c-0.504,0.507-1.264,0.759-2.167,0.759C126.186,41.439,125.306,41.175,124.546,40.648z M129.212,36.542v-0.021
				c0-1.167-1.012-1.927-2.091-1.927s-1.968,0.748-1.968,1.915v0.022c0,1.145,0.912,1.937,1.968,1.937
				C128.201,38.468,129.212,37.687,129.212,36.542z"/>
			<path id="XMLID_662_" fill="#3C3C3B" d="M132.019,33.968h0.848v5.688h-0.848V33.968z M133.142,31.514l0.88,0.406l-1.255,1.188
				h-0.66L133.142,31.514z"/>
			<path id="XMLID_660_" fill="#3C3C3B" d="M134.386,38.93l0.428-0.605c0.616,0.464,1.299,0.728,1.971,0.728
				c0.681,0,1.176-0.352,1.176-0.903v-0.022c0-0.571-0.671-0.793-1.419-1.001c-0.892-0.252-1.883-0.561-1.883-1.607v-0.021
				c0-0.979,0.815-1.629,1.938-1.629c0.692,0,1.463,0.242,2.047,0.628l-0.387,0.638c-0.528-0.341-1.133-0.55-1.684-0.55
				c-0.672,0-1.1,0.352-1.1,0.825v0.021c0,0.54,0.704,0.749,1.463,0.979c0.88,0.264,1.827,0.607,1.827,1.629v0.022
				c0,1.079-0.892,1.707-2.023,1.707C135.925,39.768,135.022,39.448,134.386,38.93z"/>
			<path id="XMLID_658_" fill="#3C3C3B" d="M140.547,38.149v-3.433h-0.792v-0.748h0.792v-1.717h0.848v1.717h1.804v0.748h-1.804
				v3.322c0,0.694,0.384,0.947,0.956,0.947c0.287,0,0.527-0.056,0.827-0.197v0.726c-0.3,0.154-0.619,0.242-1.023,0.242
				C141.24,39.756,140.547,39.304,140.547,38.149z"/>
			<path id="XMLID_655_" fill="#3C3C3B" d="M144.738,31.788h0.971v0.936h-0.971V31.788z M144.794,33.968h0.847v5.688h-0.847V33.968z
				"/>
			<path id="XMLID_653_" fill="#3C3C3B" d="M147.281,36.841v-0.023c0-1.607,1.255-2.972,2.918-2.972
				c1.076,0,1.748,0.452,2.275,1.013l-0.56,0.595c-0.452-0.474-0.959-0.859-1.728-0.859c-1.155,0-2.035,0.979-2.035,2.201v0.022
				c0,1.232,0.9,2.212,2.091,2.212c0.725,0,1.288-0.363,1.736-0.848l0.54,0.507c-0.572,0.639-1.253,1.1-2.32,1.1
				C148.536,39.789,147.281,38.435,147.281,36.841z"/>
			<path id="XMLID_650_" fill="#3C3C3B" d="M153.51,38.006v-0.021c0-1.199,0.991-1.839,2.431-1.839c0.728,0,1.243,0.1,1.751,0.243
				V36.19c0-1.023-0.628-1.552-1.695-1.552c-0.672,0-1.199,0.177-1.728,0.42l-0.252-0.693c0.625-0.286,1.24-0.474,2.067-0.474
				c0.804,0,1.42,0.209,1.839,0.627c0.385,0.385,0.584,0.936,0.584,1.661v3.478h-0.815v-0.858c-0.396,0.518-1.056,0.981-2.059,0.981
				C154.578,39.78,153.51,39.172,153.51,38.006z M157.704,37.565v-0.548c-0.419-0.123-0.979-0.243-1.675-0.243
				c-1.067,0-1.66,0.463-1.66,1.177v0.022c0,0.716,0.66,1.135,1.432,1.135C156.844,39.108,157.704,38.468,157.704,37.565z"/>
			<path id="XMLID_648_" fill="#3C3C3B" d="M159.859,38.93l0.429-0.605c0.618,0.464,1.299,0.728,1.971,0.728
				c0.683,0,1.179-0.352,1.179-0.903v-0.022c0-0.571-0.672-0.793-1.42-1.001c-0.891-0.252-1.883-0.561-1.883-1.607v-0.021
				c0-0.979,0.815-1.629,1.936-1.629c0.695,0,1.464,0.242,2.048,0.628l-0.385,0.638c-0.527-0.341-1.135-0.55-1.684-0.55
				c-0.671,0-1.1,0.352-1.1,0.825v0.021c0,0.54,0.704,0.749,1.464,0.979c0.88,0.264,1.824,0.607,1.824,1.629v0.022
				c0,1.079-0.889,1.707-2.023,1.707C161.402,39.768,160.499,39.448,159.859,38.93z"/>
			<path id="XMLID_645_" fill="#3C3C3B" d="M168.806,36.83v-0.023c0-1.64,1.156-2.96,2.728-2.96c1.684,0,2.654,1.344,2.654,3.004
				c0,0.111,0,0.176-0.012,0.275h-4.511c0.121,1.233,0.988,1.927,2,1.927c0.783,0,1.332-0.319,1.795-0.804l0.528,0.474
				c-0.572,0.638-1.264,1.066-2.344,1.066C170.083,39.789,168.806,38.59,168.806,36.83z M173.329,36.498
				c-0.088-1.032-0.683-1.936-1.815-1.936c-0.991,0-1.738,0.824-1.848,1.936H173.329z"/>
			<path id="XMLID_643_" fill="#3C3C3B" d="M175.696,33.968h0.848v0.99c0.372-0.616,0.968-1.112,1.947-1.112
				c1.375,0,2.179,0.924,2.179,2.279v3.531h-0.848v-3.323c0-1.056-0.572-1.716-1.575-1.716c-0.979,0-1.703,0.716-1.703,1.782v3.257
				h-0.848V33.968z"/>
			<path id="XMLID_640_" fill="#3C3C3B" d="M196.82,36.841v-0.023c0-1.607,1.255-2.972,2.971-2.972c1.707,0,2.962,1.344,2.962,2.949
				v0.022c0,1.606-1.267,2.971-2.982,2.971C198.063,39.789,196.82,38.447,196.82,36.841z M201.881,36.841v-0.023
				c0-1.221-0.912-2.224-2.111-2.224c-1.232,0-2.079,1.003-2.079,2.201v0.022c0,1.221,0.9,2.212,2.1,2.212
				C201.025,39.03,201.881,38.039,201.881,36.841z"/>
			<path id="XMLID_638_" fill="#3C3C3B" d="M203.413,33.968h0.935l1.916,4.721l1.924-4.721h0.914l-2.475,5.732h-0.748
				L203.413,33.968z"/>
			<path id="XMLID_635_" fill="#3C3C3B" d="M210.477,31.788h0.968v0.936h-0.968V31.788z M210.53,33.968h0.851v5.688h-0.851V33.968z"
				/>
			<path id="XMLID_633_" fill="#3C3C3B" d="M213.372,33.968h0.848v0.958c0.372-0.562,0.88-1.08,1.836-1.08
				c0.924,0,1.519,0.496,1.827,1.134c0.407-0.628,1.012-1.134,2.003-1.134c1.308,0,2.111,0.88,2.111,2.289v3.521h-0.848v-3.323
				c0-1.1-0.549-1.716-1.473-1.716c-0.858,0-1.562,0.637-1.562,1.76v3.279h-0.848v-3.345c0-1.066-0.563-1.694-1.464-1.694
				c-0.903,0-1.583,0.748-1.583,1.792v3.247h-0.848V33.968z"/>
			<path id="XMLID_631_" fill="#3C3C3B" d="M186.488,33.968h0.848v0.958c0.372-0.562,0.88-1.08,1.836-1.08
				c0.924,0,1.519,0.496,1.827,1.134c0.407-0.628,1.012-1.134,2.003-1.134c1.308,0,2.114,0.88,2.114,2.289v3.521h-0.851v-3.323
				c0-1.1-0.549-1.716-1.473-1.716c-0.858,0-1.562,0.637-1.562,1.76v3.279h-0.848v-3.345c0-1.066-0.563-1.694-1.464-1.694
				c-0.903,0-1.583,0.748-1.583,1.792v3.247h-0.848V33.968z"/>
			<path id="XMLID_628_" fill="#3C3C3B" d="M223.879,31.788h0.968v0.936h-0.968V31.788z M223.935,33.968h0.848v5.688h-0.848V33.968z
				"/>
			<path id="XMLID_625_" fill="#3C3C3B" d="M226.421,36.83v-0.023c0-1.64,1.156-2.96,2.728-2.96c1.684,0,2.654,1.344,2.654,3.004
				c0,0.111,0,0.176-0.012,0.275h-4.514c0.124,1.233,0.991,1.927,2.003,1.927c0.783,0,1.332-0.319,1.795-0.804l0.528,0.474
				c-0.572,0.638-1.267,1.066-2.344,1.066C227.698,39.789,226.421,38.59,226.421,36.83z M230.944,36.498
				c-0.088-1.032-0.684-1.936-1.815-1.936c-0.991,0-1.739,0.824-1.851,1.936H230.944z"/>
			<path id="XMLID_623_" fill="#3C3C3B" d="M233.311,33.968h0.845v0.99c0.375-0.616,0.971-1.112,1.95-1.112
				c1.375,0,2.179,0.924,2.179,2.279v3.531h-0.848v-3.323c0-1.056-0.572-1.716-1.575-1.716c-0.979,0-1.706,0.716-1.706,1.782v3.257
				h-0.845V33.968z"/>
			<path id="XMLID_621_" fill="#3C3C3B" d="M240.408,38.149v-3.433h-0.792v-0.748h0.792v-1.717h0.848v1.717h1.804v0.748h-1.804
				v3.322c0,0.694,0.384,0.947,0.956,0.947c0.287,0,0.527-0.056,0.827-0.197v0.726c-0.3,0.154-0.616,0.242-1.023,0.242
				C241.1,39.756,240.408,39.304,240.408,38.149z"/>
			<path id="XMLID_618_" fill="#3C3C3B" d="M244.062,36.841v-0.023c0-1.607,1.255-2.972,2.971-2.972
				c1.707,0,2.959,1.344,2.959,2.949v0.022c0,1.606-1.264,2.971-2.982,2.971C245.305,39.789,244.062,38.447,244.062,36.841z
				 M249.124,36.841v-0.023c0-1.221-0.912-2.224-2.114-2.224c-1.231,0-2.079,1.003-2.079,2.201v0.022
				c0,1.221,0.903,2.212,2.103,2.212C248.264,39.03,249.124,38.039,249.124,36.841z"/>
		</g>
	</g>
	<g id="XMLID_1087_">
		<g>
			<g id="XMLID_270_">
				<g>
					<path id="XMLID_278_" fill="#3C3C3B" d="M176.675,0h8.991c5.42,0,8.988,2.882,8.988,7.618v0.069
						c0,5.181-4.322,7.857-9.434,7.857h-5.833v8.475h-2.713V0z M185.324,13.073c3.979,0,6.587-2.127,6.587-5.284V7.72
						c0-3.431-2.575-5.216-6.452-5.216h-6.07v10.569H185.324z"/>
					<path id="XMLID_275_" fill="#3C3C3B" d="M196.265,18.873v-0.067c0-3.742,3.088-5.732,7.584-5.732
						c2.264,0,3.877,0.309,5.455,0.754v-0.617c0-3.191-1.956-4.839-5.285-4.839c-2.094,0-3.739,0.55-5.387,1.304l-0.789-2.161
						c1.956-0.893,3.877-1.476,6.451-1.476c2.505,0,4.426,0.652,5.73,1.956c1.2,1.202,1.818,2.917,1.818,5.182v10.843h-2.539v-2.677
						c-1.235,1.612-3.294,3.054-6.417,3.054C199.594,24.396,196.265,22.509,196.265,18.873z M209.339,17.5v-1.716
						c-1.306-0.377-3.057-0.754-5.218-0.754c-3.328,0-5.182,1.441-5.182,3.67v0.07c0,2.23,2.059,3.533,4.464,3.533
						C206.662,22.303,209.339,20.312,209.339,17.5z"/>
					<path id="XMLID_273_" fill="#3C3C3B" d="M215.169,15.235v-0.069c0-5.01,3.912-9.265,9.091-9.265
						c3.364,0,5.458,1.407,7.104,3.156l-1.751,1.853c-1.405-1.475-2.982-2.675-5.385-2.675c-3.604,0-6.349,3.053-6.349,6.861v0.069
						c0,3.844,2.815,6.896,6.519,6.896c2.265,0,4.016-1.132,5.42-2.642L231.501,21c-1.783,1.99-3.912,3.43-7.241,3.43
						C219.082,24.43,215.169,20.21,215.169,15.235z"/>
					<path id="XMLID_271_" fill="#3C3C3B" d="M234.244,0h2.642v16.265l9.572-9.985h3.294l-7.446,7.617l7.687,10.122h-3.155
						l-6.35-8.269l-3.602,3.637v4.632h-2.642V0z"/>
				</g>
			</g>
			<g id="XMLID_250_">
				<g>
					<path id="XMLID_268_" fill="#3C3C3B" d="M51.528,0h2.71v24.019h-2.71V0z"/>
					<path id="XMLID_266_" fill="#3C3C3B" d="M59.452,6.28h2.643v3.088c1.167-1.922,3.02-3.466,6.073-3.466
						c4.289,0,6.794,2.882,6.794,7.103v11.014H72.32V13.656c0-3.294-1.785-5.352-4.907-5.352c-3.054,0-5.318,2.23-5.318,5.559
						v10.156h-2.643V6.28z"/>
					<path id="XMLID_264_" fill="#3C3C3B" d="M80.311,19.318V8.613H77.84V6.28h2.471V0.927h2.642V6.28h5.628v2.333h-5.628v10.362
						c0,2.161,1.202,2.95,2.986,2.95c0.892,0,1.646-0.17,2.573-0.617v2.266c-0.926,0.479-1.922,0.754-3.191,0.754
						C82.473,24.328,80.311,22.921,80.311,19.318z"/>
					<path id="XMLID_261_" fill="#3C3C3B" d="M90.431,15.201v-0.069c0-5.113,3.604-9.23,8.509-9.23c5.251,0,8.271,4.187,8.271,9.367
						c0,0.343,0,0.549-0.034,0.858h-14.07c0.378,3.842,3.088,6.005,6.245,6.005c2.437,0,4.153-0.996,5.593-2.506l1.648,1.475
						c-1.786,1.991-3.946,3.329-7.308,3.329C94.412,24.43,90.431,20.691,90.431,15.201z M104.534,14.171
						c-0.275-3.225-2.129-6.039-5.663-6.039c-3.087,0-5.421,2.573-5.764,6.039H104.534z"/>
					<path id="XMLID_258_" fill="#3C3C3B" d="M110.432,27.108l1.202-2.06c2.023,1.476,4.287,2.265,6.827,2.265
						c3.911,0,6.45-2.162,6.45-6.314v-2.092c-1.544,2.059-3.705,3.741-6.966,3.741c-4.254,0-8.337-3.191-8.337-8.304v-0.068
						c0-5.182,4.116-8.373,8.337-8.373c3.328,0,5.491,1.647,6.933,3.569V6.28h2.643v14.651c0,2.745-0.824,4.839-2.266,6.279
						c-1.578,1.577-3.946,2.366-6.76,2.366C115.543,29.577,112.8,28.754,110.432,27.108z M124.981,14.309V14.24
						c0-3.637-3.157-6.004-6.52-6.004s-6.141,2.333-6.141,5.969v0.07c0,3.568,2.848,6.038,6.141,6.038
						C121.824,20.312,124.981,17.877,124.981,14.309z"/>
					<path id="XMLID_256_" fill="#3C3C3B" d="M132.215,6.28h2.643v4.631c1.306-2.95,3.877-5.077,7.241-4.941v2.848h-0.206
						c-3.877,0-7.035,2.78-7.035,8.132v7.069h-2.643V6.28z"/>
					<path id="XMLID_253_" fill="#3C3C3B" d="M143.29,18.873v-0.07c0-3.739,3.088-5.729,7.581-5.729
						c2.264,0,3.877,0.309,5.455,0.754v-0.617c0-3.192-1.954-4.838-5.282-4.838c-2.094,0-3.742,0.549-5.388,1.304l-0.788-2.161
						c1.956-0.893,3.877-1.476,6.448-1.476c2.508,0,4.429,0.652,5.73,1.956c1.203,1.202,1.818,2.917,1.818,5.182v10.843h-2.539
						v-2.677c-1.235,1.612-3.294,3.054-6.414,3.054C146.615,24.396,143.29,22.509,143.29,18.873z M156.361,17.5v-1.716
						c-1.303-0.377-3.054-0.754-5.215-0.754c-3.328,0-5.182,1.441-5.182,3.671v0.069c0,2.229,2.059,3.533,4.46,3.533
						C153.686,22.303,156.361,20.312,156.361,17.5z"/>
					<path id="XMLID_251_" fill="#3C3C3B" d="M163.419,0h2.643v24.019h-2.643V0z"/>
				</g>
			</g>
		</g>
	</g>
	<g id="XMLID_1069_">
		<polygon id="XMLID_1086_" fill="#004D9C" points="39.836,0 8.242,0 10.989,10.989 28.847,10.989 28.847,28.846 39.836,31.594 		
			"/>
		<polygon id="XMLID_1085_" fill="#FFC627" points="0,39.835 31.594,39.835 28.847,28.846 10.989,28.846 10.989,10.989 0,8.242 		
			"/>
	</g>
</g>
</svg>
